<svg width="9" height="9" viewBox="0 0 9 9" fill="none" xmlns="http://www.w3.org/2000/svg">
<path d="M4.70351 5.97375L7.69039 2.83893C7.74025 2.78663 7.76807 2.71713 7.76807 2.64487C7.76807 2.57261 7.74025 2.50311 7.69039 2.45081L7.68701 2.44743C7.66284 2.42199 7.63374 2.40173 7.60149 2.38788C7.56924 2.37404 7.53452 2.3669 7.49942 2.3669C7.46432 2.3669 7.42959 2.37404 7.39734 2.38788C7.36509 2.40173 7.336 2.42199 7.31183 2.44743L4.49933 5.39943L1.68795 2.44743C1.66378 2.42199 1.63468 2.40173 1.60243 2.38788C1.57018 2.37404 1.53545 2.3669 1.50036 2.3669C1.46526 2.3669 1.43053 2.37404 1.39828 2.38788C1.36603 2.40173 1.33694 2.42199 1.31276 2.44743L1.30939 2.45081C1.25953 2.50311 1.23171 2.57261 1.23171 2.64487C1.23171 2.71713 1.25953 2.78663 1.30939 2.83893L4.29626 5.97375C4.32253 6.00131 4.35412 6.02326 4.38912 6.03826C4.42413 6.05326 4.46181 6.06099 4.49989 6.06099C4.53797 6.06099 4.57565 6.05326 4.61065 6.03826C4.64565 6.02326 4.67725 6.00131 4.70351 5.97375Z" fill="#666666"/>
</svg>
